<?xml version="1.0" encoding="UTF-8" standalone="no"?>
<!-- Created with Inkscape (http://www.inkscape.org/) -->

<svg
   xmlns:dc="http://purl.org/dc/elements/1.1/"
   xmlns:cc="http://creativecommons.org/ns#"
   xmlns:rdf="http://www.w3.org/1999/02/22-rdf-syntax-ns#"
   xmlns:svg="http://www.w3.org/2000/svg"
   xmlns="http://www.w3.org/2000/svg"
   xmlns:sodipodi="http://sodipodi.sourceforge.net/DTD/sodipodi-0.dtd"
   xmlns:inkscape="http://www.inkscape.org/namespaces/inkscape"
   width="785.91101"
   height="208.16759"
   id="svg3070"
   version="1.1"
   inkscape:version="0.48.3.1 r9886"
   sodipodi:docname="linkedin-bw.svg">
  <defs
     id="defs3072" />
  <sodipodi:namedview
     id="base"
     pagecolor="#ffffff"
     bordercolor="#666666"
     borderopacity="1.0"
     inkscape:pageopacity="0.0"
     inkscape:pageshadow="2"
     inkscape:zoom="0.71880892"
     inkscape:cx="60.960825"
     inkscape:cy="347.3156"
     inkscape:document-units="px"
     inkscape:current-layer="g3019"
     showgrid="false"
     fit-margin-top="0"
     fit-margin-left="0"
     fit-margin-right="0"
     fit-margin-bottom="0"
     inkscape:window-width="1280"
     inkscape:window-height="776"
     inkscape:window-x="0"
     inkscape:window-y="24"
     inkscape:window-maximized="1" />
  <metadata
     id="metadata3075">
    <rdf:RDF>
      <cc:Work
         rdf:about="">
        <dc:format>image/svg+xml</dc:format>
        <dc:type
           rdf:resource="http://purl.org/dc/dcmitype/StillImage" />
        <dc:title />
      </cc:Work>
    </rdf:RDF>
  </metadata>
  <g
     inkscape:label="Layer 1"
     inkscape:groupmode="layer"
     id="layer1"
     transform="translate(-202.33769,-263.82611)">
    <g
       transform="matrix(1.018827,0,0,-1.018827,170.5996,498.03288)"
       id="g3019">
      <path
         d="m 599.50693,215.24257 c 0,8.08121 6.71723,14.63627 15.00375,14.63627 l 173.02526,0 c 8.28624,0 15.00375,-6.55506 15.00375,-14.63627 l 0,-175.048297 c 0,-8.08394 -6.71751,-14.636273 -15.00375,-14.636273 l -173.02526,0 c -8.28652,0 -15.00375,6.552333 -15.00375,14.636273 l 0,175.048297 z"
         style="fill:#000000;fill-opacity:1;fill-rule:nonzero;stroke:none"
         id="path14"
         inkscape:connector-curvature="0" />
      <path
         d="m 31.1516,58.731914 84.73149,0 0,27.817381 -54.068212,0 0,106.131405 -30.663278,0 0,-133.948786 z"
         style="fill:#000000;fill-opacity:1;fill-rule:evenodd;stroke:none"
         id="path16"
         inkscape:connector-curvature="0" />
      <path
         d="m 158.78148,58.731914 0,92.259576 -30.66601,0 0,-92.259576 30.66601,0 z m -15.333,104.856426 c 10.69395,0 17.35003,7.08471 17.35003,15.94401 -0.1993,9.05041 -6.65608,15.93582 -17.14609,15.93582 -10.49138,0 -17.35003,-6.88541 -17.35003,-15.93582 0,-8.8593 6.65471,-15.94401 16.94597,-15.94401 l 0.1993,0 z"
         style="fill:#000000;fill-opacity:1;fill-rule:evenodd;stroke:none"
         id="path18"
         inkscape:connector-curvature="0" />
      <path
         d="m 173.01997,58.731914 30.66628,0 0,51.523176 c 0,2.75744 0.19931,5.51215 1.01043,7.48331 2.21551,5.50669 7.26108,11.21268 15.73297,11.21268 11.09774,0 15.53694,-8.46343 15.53694,-20.85826 l 0,-49.360906 30.66328,0 0,52.901896 c 0,28.33884 -15.13043,41.52541 -35.30642,41.52541 -16.54218,0 -23.80599,-9.24698 -27.84141,-15.54541 l 0.20476,0 0,13.37768 -30.66628,0 c 0.4027,-8.65727 0,-92.259576 0,-92.259576 z"
         style="fill:#000000;fill-opacity:1;fill-rule:evenodd;stroke:none"
         id="path20"
         inkscape:connector-curvature="0" />
      <path
         d="m 309.89083,192.6807 -30.66737,0 0,-133.948786 30.66737,0 0,29.911398 7.66404,9.648309 24.00857,-39.559707 37.72478,0 -40.34681,57.270116 35.30506,38.96454 -36.91829,0 c 0,0 -25.21775,-34.86114 -27.43735,-38.99457 l 0,76.7087 z"
         style="fill:#000000;fill-opacity:1;fill-rule:evenodd;stroke:none"
         id="path22"
         inkscape:connector-curvature="0" />
      <path
         d="m 461.29749,97.215947 c 0.40269,2.36976 1.00933,6.915443 1.00933,12.053563 0,23.85049 -12.10707,48.06136 -43.98089,48.06136 -34.09616,0 -49.83159,-26.96558 -49.83159,-51.42216 0,-30.249937 19.16558,-49.142496 52.6551,-49.142496 13.31597,0 25.62043,1.9657 35.70912,6.099129 l -4.03651,20.252168 c -8.27041,-2.743789 -16.74367,-4.114319 -27.23341,-4.114319 -14.32394,0 -26.83098,5.877989 -27.84141,18.409325 l 63.55026,-0.19111 z m -63.7501,20.746323 c 0.80648,7.87372 6.05217,19.48773 19.16557,19.48773 13.91715,0 17.14718,-12.40302 17.14718,-19.48773 l -36.31275,0 z"
         style="fill:#000000;fill-opacity:1;fill-rule:evenodd;stroke:none"
         id="path24"
         inkscape:connector-curvature="0" />
      <path
         d="m 538.00018,192.6807 0,-46.36867 -0.40269,0 c -4.43921,6.48954 -13.7214,10.81954 -26.02423,10.81954 -23.60614,0 -44.38468,-18.89256 -44.18483,-51.16553 0,-29.916858 18.76315,-49.399126 42.16508,-49.399126 12.70961,0 24.81395,5.512149 30.86612,16.140579 l 0.60664,0 1.21027,-13.975579 27.2375,0 c -0.40406,6.494999 -0.81058,17.713138 -0.81058,28.731978 l 0,105.216808 -30.66328,0 z m 0,-91.24396 c 0,-2.358839 -0.20203,-4.723139 -0.60663,-6.688839 -1.81309,-8.463429 -9.07826,-14.365989 -17.95257,-14.365989 -12.71071,0 -20.98248,10.23256 -20.98248,26.370408 0,15.15227 7.06259,27.35326 21.18259,27.35326 9.48068,0 16.13949,-6.49227 17.9564,-14.55983 0.40269,-1.77459 0.40269,-3.74302 0.40269,-5.51215 l 0,-12.59686 z"
         style="fill:#000000;fill-opacity:1;fill-rule:evenodd;stroke:none"
         id="path26"
         inkscape:connector-curvature="0" />
      <path
         d="m 661.05244,58.841119 0,92.262301 -30.66628,0 0,-92.262301 30.66628,0 z M 645.71917,163.70028 c 10.69395,0 17.35003,7.08471 17.35003,15.93855 -0.1993,9.05314 -6.65608,15.94128 -17.14719,15.94128 -10.49001,0 -17.34866,-6.88814 -17.34866,-15.94128 0,-8.85384 6.65471,-15.93855 16.94597,-15.93855 l 0.1993,0 z"
         style="fill:#ffffff;fill-opacity:1;fill-rule:evenodd;stroke:none"
         id="path28"
         inkscape:connector-curvature="0" />
      <path
         d="m 678.02107,58.841119 30.66601,0 0,51.523171 c 0,2.75744 0.1993,5.51215 1.00906,7.48331 2.21687,5.50942 7.26272,11.21541 15.73433,11.21541 11.09665,0 15.53559,-8.4607 15.53559,-20.86372 l 0,-49.358171 30.66355,0 0,52.901891 c 0,28.33884 -15.12907,41.52541 -35.30506,41.52541 -16.54355,0 -23.80627,-9.24698 -27.84141,-15.54541 l 0.20476,0 0,13.38041 -30.66601,0 c 0.40242,-8.65727 0,-92.262301 0,-92.262301 z"
         style="fill:#ffffff;fill-opacity:1;fill-rule:evenodd;stroke:none"
         id="path30"
         inkscape:connector-curvature="0" />
    </g>
  </g>
</svg>
