<?xml version="1.0" encoding="UTF-8" standalone="no"?>
<!-- Created with Inkscape (http://www.inkscape.org/) -->

<svg
   xmlns:dc="http://purl.org/dc/elements/1.1/"
   xmlns:cc="http://creativecommons.org/ns#"
   xmlns:rdf="http://www.w3.org/1999/02/22-rdf-syntax-ns#"
   xmlns:svg="http://www.w3.org/2000/svg"
   xmlns="http://www.w3.org/2000/svg"
   xmlns:sodipodi="http://sodipodi.sourceforge.net/DTD/sodipodi-0.dtd"
   xmlns:inkscape="http://www.inkscape.org/namespaces/inkscape"
   id="svg2"
   version="1.1"
   inkscape:version="0.48.3.1 r9886"
   width="749.22571"
   height="166.01433"
   xml:space="preserve"
   sodipodi:docname="Novus_Print.ai"><metadata
     id="metadata8"><rdf:RDF><cc:Work
         rdf:about=""><dc:format>image/svg+xml</dc:format><dc:type
           rdf:resource="http://purl.org/dc/dcmitype/StillImage" /><dc:title></dc:title></cc:Work></rdf:RDF></metadata><defs
     id="defs6"><clipPath
       clipPathUnits="userSpaceOnUse"
       id="clipPath32"><path
         d="M 0,612 792,612 792,0 0,0 0,612 z"
         id="path34"
         inkscape:connector-curvature="0" /></clipPath></defs><sodipodi:namedview
     pagecolor="#ffffff"
     bordercolor="#666666"
     borderopacity="1"
     objecttolerance="10"
     gridtolerance="10"
     guidetolerance="10"
     inkscape:pageopacity="0"
     inkscape:pageshadow="2"
     inkscape:window-width="981"
     inkscape:window-height="537"
     id="namedview4"
     showgrid="false"
     inkscape:zoom="0.45551471"
     inkscape:cx="384.37419"
     inkscape:cy="54.138485"
     inkscape:window-x="0"
     inkscape:window-y="24"
     inkscape:window-maximized="0"
     inkscape:current-layer="g10"
     fit-margin-top="0"
     fit-margin-left="0"
     fit-margin-right="0"
     fit-margin-bottom="0"
     units="in"
     height="8.27in" /><g
     id="g10"
     inkscape:groupmode="layer"
     inkscape:label="Novus_Print"
     transform="matrix(1.25,0,0,-1.25,-247.83324,494.37594)"><g
       id="g12"
       transform="matrix(1.5149071,0,0,1.5149071,761.64193,299.21447)"
       style="fill:#000000;fill-opacity:1"><path
         d="m 0,0 0,3.646 -1.396,0 0,0.496 3.352,0 0,-0.496 -1.391,0 L 0.565,0 0,0 z"
         style="fill:#000000;fill-opacity:1;fill-rule:nonzero;stroke:none"
         id="path14"
         inkscape:connector-curvature="0" /></g><g
       id="g16"
       transform="matrix(1.5149071,0,0,1.5149071,765.45874,305.48861)"
       style="fill:#000000;fill-opacity:1"><path
         d="M 0,0 1.01,0 2.186,-3.41 3.39,0 l 0.931,0 0,-4.142 -0.556,0 0,3.722 -1.36,-3.722 -0.54,0 -1.311,3.698 0,-3.698 L 0,-4.142 0,0 z"
         style="fill:#000000;fill-opacity:1;fill-rule:nonzero;stroke:none"
         id="path18"
         inkscape:connector-curvature="0" /></g><g
       id="g20"
       transform="matrix(1.5149071,0,0,1.5149071,742.25885,364.21792)"
       style="fill:#000000;fill-opacity:1"><path
         d="m 0,0 -35.332,20.65 70.676,0 L 0,0 z"
         style="fill:#000000;fill-opacity:1;fill-rule:nonzero;stroke:none"
         id="path22"
         inkscape:connector-curvature="0" /></g><g
       id="g24"
       transform="matrix(1.5149071,0,0,1.5149071,743.25141,360.23978)"
       style="fill:#000000;fill-opacity:1"><path
         d="M 0,0 35.907,21.118 0.027,-40.925 0,0 z"
         style="fill:#000000;fill-opacity:1;fill-rule:nonzero;stroke:none"
         id="path26"
         inkscape:connector-curvature="0" /></g><g
       id="g28"
       style="fill:#000000;fill-opacity:1"
       transform="matrix(1.5149071,0,0,1.5149071,-102.08889,-135.2606)"><g
         id="g30"
         clip-path="url(#clipPath32)"
         style="fill:#000000;fill-opacity:1"><g
           id="g36"
           transform="translate(246.2866,323.4033)"
           style="fill:#000000;fill-opacity:1"><path
             d="m 0,0 8.52,0 0,-59.161 -11.631,0 -36.216,50.483 -0.166,0 0,-50.483 -8.527,0 0,59.161 11.635,0 36.217,-50.468 0.168,0 L 0,0 z m 89.312,-29.574 c 0,-14.093 -8.441,-31.14 -33.271,-31.14 -24.821,0 -33.263,17.047 -33.263,31.14 0,14.098 8.442,31.141 33.263,31.141 24.83,0 33.271,-17.043 33.271,-31.141 m -9.01,0 c 0,14.588 -9.919,24.419 -24.261,24.419 -14.327,0 -24.258,-9.831 -24.258,-24.419 0,-14.583 9.931,-24.427 24.258,-24.427 14.342,0 24.261,9.844 24.261,24.427 M 127.981,-51.94 104.809,0 l -9.442,0 27.132,-59.161 10.408,0 L 160.116,0 151.093,0 127.981,-51.94 z m 91.258,16.226 c 0,-11.313 -6.804,-18.287 -19.015,-18.287 -12.213,0 -19.011,6.974 -19.011,18.287 l 0,35.714 -8.517,0 0,-35.306 c 0,-16.893 11.463,-25.408 27.528,-25.408 16.053,0 27.536,8.515 27.536,25.408 l 0,35.306 -8.521,0 0,-35.714 z m 63.188,8.349 -22.042,3.767 c -7.288,1.233 -9.258,4.512 -9.258,7.71 0,6.551 7.133,10.733 15.563,10.733 9.595,0 18.027,-2.293 18.852,-10.567 l 9.019,0 c -0.827,13.596 -13.852,17.289 -26.15,17.289 -16.138,0 -25.807,-6.554 -25.807,-17.945 0,-24.751 45.317,-9.921 45.317,-26.31 0,-6.46 -6.815,-11.313 -19.095,-11.313 -11.224,0 -18.845,4.599 -19.087,12.538 l -9.023,0 c 1.072,-13.019 10.827,-19.251 27.619,-19.251 17.535,0 28.098,7.135 28.098,18.937 0,7.279 -4.415,12.784 -14.006,14.412"
             style="fill:#000000;fill-opacity:1;fill-rule:nonzero;stroke:none"
             id="path38"
             inkscape:connector-curvature="0" /></g></g></g></g></svg>