<?xml version="1.0" encoding="UTF-8" standalone="no"?>
<!-- Created with Inkscape (http://www.inkscape.org/) -->

<svg
   xmlns:dc="http://purl.org/dc/elements/1.1/"
   xmlns:cc="http://creativecommons.org/ns#"
   xmlns:rdf="http://www.w3.org/1999/02/22-rdf-syntax-ns#"
   xmlns:svg="http://www.w3.org/2000/svg"
   xmlns="http://www.w3.org/2000/svg"
   xmlns:sodipodi="http://sodipodi.sourceforge.net/DTD/sodipodi-0.dtd"
   xmlns:inkscape="http://www.inkscape.org/namespaces/inkscape"
   width="750.22174"
   height="244.68648"
   id="svg3169"
   version="1.1"
   inkscape:version="0.48.3.1 r9886"
   sodipodi:docname="New document 5">
  <defs
     id="defs3171" />
  <sodipodi:namedview
     id="base"
     pagecolor="#ffffff"
     bordercolor="#666666"
     borderopacity="1.0"
     inkscape:pageopacity="0.0"
     inkscape:pageshadow="2"
     inkscape:zoom="0.44980469"
     inkscape:cx="66.743394"
     inkscape:cy="228.87624"
     inkscape:document-units="px"
     inkscape:current-layer="layer1"
     showgrid="false"
     fit-margin-top="0"
     fit-margin-left="0"
     fit-margin-right="0"
     fit-margin-bottom="0"
     units="in"
     inkscape:window-width="760"
     inkscape:window-height="488"
     inkscape:window-x="0"
     inkscape:window-y="24"
     inkscape:window-maximized="0" />
  <metadata
     id="metadata3174">
    <rdf:RDF>
      <cc:Work
         rdf:about="">
        <dc:format>image/svg+xml</dc:format>
        <dc:type
           rdf:resource="http://purl.org/dc/dcmitype/StillImage" />
        <dc:title></dc:title>
      </cc:Work>
    </rdf:RDF>
  </metadata>
  <g
     inkscape:label="Layer 1"
     inkscape:groupmode="layer"
     id="layer1"
     transform="translate(-219.32912,-338.69695)">
    <path
       d="m 414.39312,468.14883 c -2.46085,0.81839 -5.10447,1.50536 -7.92793,2.05195 -2.82821,0.54957 -5.78935,1.00058 -8.88699,1.36497 -3.09882,0.36738 -6.19646,0.81839 -9.29289,1.37096 -2.91932,0.5436 -5.78935,1.27537 -8.6128,2.18635 -2.82702,0.91695 -5.28876,2.14155 -7.38073,3.68873 -2.09794,1.55016 -3.78609,3.50951 -5.05669,5.87806 -1.27867,2.36855 -1.91694,5.37927 -1.91694,9.02319 0,3.46472 0.63827,6.38284 1.91694,8.74841 1.2706,2.37153 3.00443,4.23531 5.19198,5.60626 2.18755,1.36498 4.73801,2.32076 7.65494,2.86735 2.91423,0.55256 5.92227,0.82437 9.02348,0.82437 7.65494,0 13.57482,-1.27239 17.77159,-3.8321 4.18724,-2.55074 7.28606,-5.60626 9.29292,-9.16058 2.00444,-3.55134 3.23293,-7.14747 3.6914,-10.79438 0.4528,-3.64392 0.6825,-6.56205 0.6825,-8.7484 l 0,-14.49207 c -1.63797,1.46355 -3.68904,2.59854 -6.15078,3.41693 z m -76.68786,-54.81716 c 4.00891,-6.00948 9.1122,-10.84216 15.30986,-14.48907 6.19526,-3.64393 13.16531,-6.24246 20.91703,-7.79262 7.74363,-1.54419 15.53594,-2.32076 23.37425,-2.32076 7.10656,0 14.30628,0.50178 21.5995,1.50536 7.28637,1.00058 13.94132,2.95994 19.95587,5.87806 6.01427,2.91215 10.93717,6.96826 14.76327,12.16234 3.82612,5.19409 5.74067,12.07573 5.74067,20.64193 l 0,73.54454 c 0,6.38284 0.36442,12.48491 1.09617,18.31818 0.72582,5.83326 2.00415,10.20597 3.82612,13.1241 l -39.36991,0 c -0.7291,-2.19233 -1.32314,-4.42349 -1.77685,-6.69945 -0.45639,-2.27894 -0.77836,-4.60269 -0.95669,-6.97423 -6.19766,6.38284 -13.48969,10.84814 -21.8704,13.39889 -8.3864,2.54776 -16.95261,3.82612 -25.69953,3.82612 -6.74484,0 -13.03239,-0.82138 -18.86477,-2.45816 -5.83475,-1.64275 -10.93476,-4.19051 -15.30866,-7.65821 -4.3751,-3.46173 -7.79381,-7.83443 -10.25077,-13.1241 -2.46413,-5.28369 -3.69411,-11.56796 -3.69411,-18.86178 0,-8.01962 1.41069,-14.62348 4.2389,-19.82354 2.82346,-5.19409 6.46588,-9.33382 10.93447,-12.43414 4.46411,-3.10331 9.56947,-5.42407 15.31105,-6.97424 5.74156,-1.54717 11.52496,-2.77774 17.3609,-3.69469 5.82999,-0.90501 11.57274,-1.63977 17.2244,-2.18337 5.6457,-0.54958 10.66148,-1.36498 15.03567,-2.46114 4.37393,-1.09318 7.83444,-2.68814 10.38848,-4.78489 2.55163,-2.09377 3.73353,-5.15227 3.55372,-9.1576 0,-4.1935 -0.68248,-7.51783 -2.05106,-9.97599 -1.36379,-2.46413 -3.18754,-4.37868 -5.46708,-5.74366 -2.28222,-1.36498 -4.92018,-2.28193 -7.92911,-2.73294 -3.00565,-0.454 -6.24337,-0.68697 -9.7027,-0.68697 -7.65702,0 -13.67157,1.63976 -18.04579,4.92527 -4.3739,3.27654 -6.92792,8.7484 -7.65491,16.40064 l -38.82272,0 c 0.54718,-9.11279 2.82582,-16.67543 6.83473,-22.69388"
       style="fill:#b21d23;fill-opacity:1;fill-rule:nonzero;stroke:none"
       id="path54"
       inkscape:connector-curvature="0" />
    <path
       d="m 574.29864,504.65079 c 4.28012,-2.55374 7.74483,-5.88404 10.38817,-9.97898 2.64035,-4.10389 4.50712,-8.88878 5.60328,-14.35467 1.09318,-5.47185 1.63977,-11.02436 1.63977,-16.67543 0,-5.64808 -0.59438,-11.21551 -1.77716,-16.67841 -1.18876,-5.46888 -3.14214,-10.34337 -5.87807,-14.62647 -2.73294,-4.28012 -6.24544,-7.74782 -10.52257,-10.39116 -4.28609,-2.64334 -9.52797,-3.96351 -15.71965,-3.96351 -6.38284,0 -11.71432,1.32017 -15.99444,3.96351 -4.2831,2.64334 -7.7508,6.06026 -10.38817,10.25376 -2.64632,4.19051 -4.51308,9.02021 -5.60626,14.48908 -1.09318,5.46588 -1.63977,11.11994 -1.63977,16.9532 0,5.65107 0.59139,11.20358 1.77716,16.67543 1.18278,5.46589 3.09734,10.25078 5.74366,14.35467 2.64035,4.09494 6.14688,7.42524 10.52557,9.97898 4.3727,2.55373 9.65639,3.82612 15.85405,3.82612 6.37687,0 11.71133,-1.27239 15.99443,-3.82612 z m -50.44146,-112.09545 0,18.04339 0.54659,0 c 4.7371,-7.65522 10.75256,-13.21071 18.04639,-16.67543 7.28486,-3.46173 15.30746,-5.19408 24.05586,-5.19408 11.11696,0 20.68375,2.09675 28.70636,6.28726 8.01663,4.1935 14.67127,9.75197 19.95496,16.67842 5.28667,6.92644 9.2024,14.99385 11.75613,24.19326 2.55373,9.20539 3.82911,18.81997 3.82911,28.84374 0,9.48018 -1.27538,18.59297 -3.82911,27.34138 -2.55373,8.74541 -6.42167,16.49622 -11.62173,23.23748 -5.19109,6.74723 -11.66354,12.12351 -19.41136,16.12884 -7.74184,4.00831 -16.80685,6.01546 -27.198,6.01546 -8.74841,0 -16.80984,-1.77716 -24.19326,-5.33148 -7.38044,-3.55432 -13.44369,-8.79022 -18.18079,-15.72263 l -0.54958,0 0,66.98248 -38.81973,0 0,-190.82809 36.90816,0"
       style="fill:#b21d23;fill-opacity:1;fill-rule:nonzero;stroke:none"
       id="path56"
       inkscape:connector-curvature="0" />
    <path
       d="m 741.39345,456.80189 c -1.09617,2.00714 -3.19292,3.46471 -6.28727,4.37868 -3.10032,0.91098 -5.83326,1.54718 -8.20181,1.91456 -7.29382,1.27238 -14.81165,2.41335 -22.5535,3.41095 -7.75379,1.00954 -14.81464,2.50893 -21.1915,4.51309 -6.37986,2.00714 -11.61874,4.88046 -15.71965,8.61698 -4.10091,3.73353 -6.15286,9.06799 -6.15286,15.99145 0,4.3727 0.86021,8.2496 2.59555,11.61874 1.72937,3.37809 4.05611,6.28427 6.97423,8.74541 2.91514,2.46413 6.28727,4.33388 10.11637,5.60627 3.82911,1.27239 7.74483,1.91157 11.75315,1.91157 6.56503,0 12.85528,-0.9976 18.86776,-3.00774 6.01546,-2.00415 11.25136,-4.91631 15.71964,-8.74242 4.46232,-3.8321 8.01664,-8.47959 10.66296,-13.94548 2.64035,-5.46887 3.96351,-11.66653 3.96351,-18.58998 l 0,-22.42208 -0.54658,0 z M 655.2714,414.69964 c 2.91813,-6.01247 6.87567,-10.93774 11.89353,-14.76386 5.0089,-3.82314 10.88996,-6.65166 17.63719,-8.47362 6.73827,-1.81898 14.21727,-2.73294 22.4161,-2.73294 6.19467,0 12.39233,0.59139 18.58998,1.78014 6.19766,1.18577 11.75614,3.41394 16.67842,6.69347 4.9193,3.28252 8.9306,7.8882 12.02794,13.80808 3.10032,5.92586 4.64749,13.62887 4.64749,23.0971 l 0,74.91549 c 0,6.92942 3.37213,10.38518 10.11936,10.38518 2.00117,0 3.82313,-0.36141 5.4629,-1.09318 l 0,14.49206 c -2.00715,0.36738 -3.77833,0.63918 -5.3285,0.82138 -1.54717,0.18232 -3.50951,0.27479 -5.87806,0.27479 -4.3757,0 -7.88521,-0.59438 -10.52258,-1.78015 -2.64632,-1.18278 -4.6923,-2.87034 -6.15584,-5.05669 -1.45757,-2.18635 -2.41634,-4.7819 -2.87034,-7.79262 -0.45399,-3.00773 -0.68099,-6.33206 -0.68099,-9.98196 l -0.54659,0 c -3.10331,4.56386 -6.24545,8.61101 -9.43239,12.1713 -3.18992,3.55133 -6.74723,6.51725 -10.66295,8.88281 -3.9217,2.36855 -8.38999,4.18753 -13.39889,5.46589 -5.01487,1.27537 -10.97956,1.92052 -17.90301,1.92052 -6.56205,0 -12.71789,-0.78254 -18.45558,-2.32972 -5.74366,-1.54418 -10.76152,-4.00234 -15.03865,-7.38044 -4.2831,-3.36913 -7.65523,-7.65522 -10.11338,-12.84632 -2.46413,-5.19408 -3.6947,-11.34993 -3.6947,-18.45856 0,-9.84457 2.18934,-17.53863 6.56802,-23.10308 4.36972,-5.5525 10.15818,-9.78781 17.35344,-12.70893 7.20123,-2.91215 15.31344,-4.96409 24.33663,-6.14986 9.02023,-1.18577 18.18079,-2.32972 27.47877,-3.41992 3.64093,-0.36737 6.83086,-0.81838 9.5638,-1.36497 2.73593,-0.55257 5.01488,-1.50536 6.83686,-2.87333 1.81599,-1.36796 3.23172,-3.23473 4.2353,-5.60328 1.00058,-2.36855 1.50535,-5.46887 1.50535,-9.29499 0,-5.83326 -0.95578,-10.61815 -2.87033,-14.35765 -1.91456,-3.73353 -4.55787,-6.69646 -7.92999,-8.87983 -3.36916,-2.19232 -7.29086,-3.6947 -11.75315,-4.5101 -4.4713,-0.82436 -9.25616,-1.23654 -14.35467,-1.23654 -10.93774,0 -19.86834,2.60152 -26.78881,7.7956 -6.93242,5.19409 -10.57634,13.5333 -10.93774,25.01464 l -17.22501,0 c 0.54958,-8.20181 2.27596,-15.31045 5.1911,-21.32591"
       style="fill:#ffffff;fill-opacity:1;fill-rule:nonzero;stroke:none"
       id="path58"
       inkscape:connector-curvature="0" />
    <path
       d="m 800.74758,485.10203 c 1.72937,7.20123 4.46232,13.62589 8.19883,19.27397 3.73353,5.64808 8.52141,10.24779 14.35766,13.80509 5.82729,3.55134 12.84632,5.3285 21.04814,5.3285 9.11279,0 16.81581,-1.77716 23.10307,-5.3285 6.28726,-3.5573 11.38875,-8.15701 15.30746,-13.80509 3.91871,-5.64808 6.74126,-12.07274 8.47663,-19.27397 1.72937,-7.19824 2.59552,-14.44427 2.59552,-21.73809 0,-7.28486 -0.86615,-14.53089 -2.59552,-21.73511 -1.73537,-7.19525 -4.55792,-13.6229 -8.47663,-19.27396 -3.91871,-5.64809 -9.0202,-10.25078 -15.30746,-13.8051 -6.28726,-3.55432 -13.99028,-5.33446 -23.10307,-5.33446 -8.20182,0 -15.22085,1.78014 -21.04814,5.33446 -5.83625,3.55432 -10.62413,8.15701 -14.35766,13.8051 -3.73651,5.65106 -6.46946,12.07871 -8.19883,19.27396 -1.73534,7.20422 -2.59853,14.45025 -2.59853,21.73511 0,7.29382 0.86319,14.53985 2.59853,21.73809 z m 94.45528,48.8017 0,-26.79777 -0.5436,0 c -1.82495,4.56087 -4.51309,8.75437 -8.06442,12.57751 -3.55731,3.82612 -7.61341,7.06682 -12.16832,9.70717 -4.55789,2.64334 -9.43238,4.68931 -14.62647,6.14987 -5.19408,1.46055 -10.34934,2.19232 -15.44784,2.19232 -10.75555,0 -20.09535,-1.96533 -28.02237,-5.88404 -7.92703,-3.91273 -14.53386,-9.29499 -19.82355,-16.12884 -5.28368,-6.83385 -9.20538,-14.76088 -11.75314,-23.78705 -2.55374,-9.02021 -3.8261,-18.5422 -3.8261,-28.56896 0,-10.02079 1.27239,-19.54875 3.8261,-28.56896 2.54778,-9.02319 6.46946,-16.9532 11.75314,-23.78407 5.28969,-6.83385 11.89652,-12.25493 19.82355,-16.26922 7.92702,-4.00533 17.26682,-6.01247 28.02237,-6.01247 5.2807,0 10.42998,0.64216 15.44784,1.91455 5.01189,1.27239 9.70419,3.23473 14.07988,5.87508 4.3757,2.64334 8.24363,5.87807 11.61576,9.70419 3.37212,3.8291 5.97065,8.29739 7.7956,13.40187 l 0.5436,0 0,-80.92796 17.22501,0 0,195.20678 -15.85704,0"
       style="fill:#ffffff;fill-opacity:1;fill-rule:nonzero;stroke:none"
       id="path60"
       inkscape:connector-curvature="0" />
    <path
       d="m 281.66382,339.21367 0,53.33868 33.59578,0 0,25.9764 -33.59578,0 0,69.99021 c 0,6.55906 1.09198,10.92878 3.27953,13.12111 2.18664,2.18635 6.56054,3.27953 13.12231,3.27953 2.18874,0 4.28071,-0.0865 6.28874,-0.26881 2.00208,-0.18519 3.91663,-0.45699 5.74127,-0.82437 l 0,30.07133 c -3.28073,0.55257 -6.92673,0.91397 -10.93445,1.09915 -4.01249,0.17324 -7.93032,0.27181 -11.75704,0.27181 -6.01455,0 -11.71162,-0.41219 -17.0867,-1.23356 -5.37867,-0.82138 -10.11668,-2.41037 -14.21668,-4.78191 -4.1021,-2.36855 -7.33862,-5.74365 -9.70478,-10.11636 -2.37214,-4.3757 -3.55523,-10.11338 -3.55523,-17.22202 l 0,-83.38611 -23.51167,0 0,-25.9764 23.51167,0 0,-53.33868"
       style="fill:#b21d23;fill-opacity:1;fill-rule:nonzero;stroke:none"
       id="path62"
       inkscape:connector-curvature="0" />
    <path
       d="m 946.05351,357.81262 2.18337,0 c 2.55971,0 4.63256,-0.84826 4.63256,-2.91813 0,-1.82495 -1.34407,-3.04656 -4.26219,-3.04656 -1.21564,0 -2.06688,0.12234 -2.55374,0.24492 l 0,5.71977 z m -0.12544,11.20954 -4.6236,0 0,-19.97288 c 1.82196,-0.24492 4.38166,-0.60633 7.66717,-0.60633 3.77236,0 5.47783,0.60633 6.81593,1.58003 1.22161,0.85125 2.07584,2.31479 2.07584,4.25921 0,2.43725 -1.83092,4.02027 -4.14272,4.75502 l 0,0.23895 c 1.95039,0.6123 2.9241,2.19233 3.53341,4.87449 0.60931,3.04059 1.09616,4.13675 1.46055,4.87151 l -4.8715,0 c -0.6123,-0.73476 -0.97371,-2.43725 -1.58302,-4.87151 -0.36439,-2.07285 -1.58003,-3.04357 -4.13974,-3.04357 l -2.19232,0 0,7.91508 z m -12.29974,-10.35232 c 0,8.88878 6.69944,15.94963 15.58524,15.94963 8.64984,0.11947 15.22384,-7.06085 15.22384,-15.82718 0,-8.89177 -6.574,-16.07507 -15.46577,-16.07507 -8.64387,0 -15.34331,7.1833 -15.34331,15.95262 z m 35.92252,0 c 0,11.20058 -9.01125,20.08936 -20.45376,20.08936 -11.45148,0 -20.5822,-8.88878 -20.5822,-20.08936 0,-11.20059 9.13072,-19.97289 20.69868,-19.97289 11.32603,0 20.33728,8.7723 20.33728,19.97289"
       style="fill:#5e6061;fill-opacity:1;fill-rule:nonzero;stroke:none"
       id="path82"
       inkscape:connector-curvature="0" />
  </g>
</svg>
