<?xml version="1.0" encoding="UTF-8" standalone="no"?>
<!-- Created with Inkscape (http://www.inkscape.org/) -->

<svg
   xmlns:dc="http://purl.org/dc/elements/1.1/"
   xmlns:cc="http://creativecommons.org/ns#"
   xmlns:rdf="http://www.w3.org/1999/02/22-rdf-syntax-ns#"
   xmlns:svg="http://www.w3.org/2000/svg"
   xmlns="http://www.w3.org/2000/svg"
   xmlns:sodipodi="http://sodipodi.sourceforge.net/DTD/sodipodi-0.dtd"
   xmlns:inkscape="http://www.inkscape.org/namespaces/inkscape"
   width="114.01963"
   height="161.76062"
   id="svg2"
   version="1.1"
   inkscape:version="0.48.4 r9939"
   sodipodi:docname="logo-sqr.svg"
   inkscape:export-filename="logo-sqr.png"
   inkscape:export-xdpi="90"
   inkscape:export-ydpi="90">
  <defs
     id="defs4">
    <inkscape:path-effect
       effect="skeletal"
       id="path-effect4070"
       is_visible="true"
       pattern="m -165.87215,-384.27907 1,0"
       copytype="single_stretched"
       prop_scale="1"
       scale_y_rel="false"
       spacing="0"
       normal_offset="0"
       tang_offset="0"
       prop_units="false"
       vertical_pattern="false"
       fuse_tolerance="0" />
    <inkscape:perspective
       sodipodi:type="inkscape:persp3d"
       inkscape:vp_x="0 : 526.18109 : 1"
       inkscape:vp_y="872.04724 : 1216.8128 : 1"
       inkscape:vp_z="744.09448 : 526.18109 : 1"
       inkscape:persp3d-origin="372.04724 : 350.78739 : 1"
       id="perspective4039" />
  </defs>
  <sodipodi:namedview
     id="base"
     pagecolor="#ffffff"
     bordercolor="#666666"
     borderopacity="1.0"
     inkscape:pageopacity="0.0"
     inkscape:pageshadow="2"
     inkscape:zoom="2.8284272"
     inkscape:cx="116.07111"
     inkscape:cy="58.16897"
     inkscape:document-units="px"
     inkscape:current-layer="layer4"
     showgrid="false"
     inkscape:window-width="1920"
     inkscape:window-height="1056"
     inkscape:window-x="0"
     inkscape:window-y="24"
     inkscape:window-maximized="1"
     fit-margin-top="10"
     fit-margin-left="10"
     fit-margin-right="10"
     fit-margin-bottom="10" />
  <metadata
     id="metadata7">
    <rdf:RDF>
      <cc:Work
         rdf:about="">
        <dc:format>image/svg+xml</dc:format>
        <dc:type
           rdf:resource="http://purl.org/dc/dcmitype/StillImage" />
        <dc:title></dc:title>
      </cc:Work>
    </rdf:RDF>
  </metadata>
  <g
     inkscape:groupmode="layer"
     id="layer3"
     inkscape:label="background"
     style="display:inline"
     transform="translate(4.1078106,-4.0968122)">
    <rect
       style="fill:#000000;fill-opacity:0"
       id="rect3026"
       width="278.5"
       height="83.5"
       x="103"
       y="395.86218"
       rx="14.292993"
       ry="14.458333" />
    <rect
       style="fill:#000000;fill-opacity:0"
       id="rect3028"
       width="238"
       height="94"
       x="109.5"
       y="384.36218"
       rx="14.292993"
       ry="14.458333" />
    <rect
       style="fill:#000000;fill-opacity:0"
       id="rect3798"
       width="245.5"
       height="94.5"
       x="108.5"
       y="384.36218"
       rx="14.292993"
       ry="14.458333" />
    <rect
       style="fill:#000000;fill-opacity:0"
       id="rect3800"
       width="272.5"
       height="127"
       x="103.5"
       y="388.36218"
       rx="14.292993"
       ry="14.458333" />
    <path
       sodipodi:type="arc"
       style="fill:#e7ff20;fill-opacity:0.99685992;stroke:none"
       id="path3821"
       sodipodi:cx="130.28156"
       sodipodi:cy="102.59126"
       sodipodi:rx="101.65632"
       sodipodi:ry="95.41748"
       d="m 231.93787,102.59126 c 0,52.69762 -45.51308,95.41748 -101.65631,95.41748 -56.143239,0 -101.656323,-42.71986 -101.656323,-95.41748 0,-52.697617 45.513084,-95.4174777 101.656323,-95.4174777 56.14323,0 101.65631,42.7198607 101.65631,95.4174777 z"
       transform="matrix(0.39052007,0,0,0.41718498,-5.28654,11.104018)"
       inkscape:export-filename="logo-sqr.pnng.png"
       inkscape:export-xdpi="360.12244"
       inkscape:export-ydpi="360.12244" />
  </g>
  <g
     inkscape:groupmode="layer"
     id="layer2"
     inkscape:label="direction-text"
     style="display:inline"
     transform="translate(4.1078106,-4.0968122)">
    <text
       xml:space="preserve"
       style="font-size:40px;font-style:normal;font-weight:normal;line-height:125%;letter-spacing:0px;word-spacing:0px;fill:#000000;fill-opacity:1;stroke:none;font-family:Sans"
       x="55.154327"
       y="87.673874"
       id="text5664"
       sodipodi:linespacing="125%"
       transform="translate(-5.9849075,-46.645817)"><tspan
         sodipodi:role="line"
         id="tspan5666"
         x="55.154327"
         y="87.673874" /></text>
  </g>
  <g
     inkscape:groupmode="layer"
     id="layer8"
     inkscape:label="symp-text"
     style="display:inline"
     transform="translate(4.1078106,-4.0968122)" />
  <g
     inkscape:groupmode="layer"
     id="layer10"
     inkscape:label="scala-text"
     transform="translate(4.1078106,-4.0968122)"
     style="display:inline"
     sodipodi:insensitive="true" />
  <g
     inkscape:groupmode="layer"
     id="layer5"
     inkscape:label="legs"
     style="display:inline"
     transform="translate(4.1078106,-4.0968122)" />
  <g
     inkscape:groupmode="layer"
     id="layer4"
     inkscape:label="tower"
     style="display:inline"
     transform="translate(4.1078106,-4.0968122)">
    <g
       style="display:inline"
       id="g4417"
       transform="matrix(1.4512427,0,0,1.6292881,-715.79918,-98.05863)"
       inkscape:export-filename="logo-sqr.pnng.png"
       inkscape:export-xdpi="360.12244"
       inkscape:export-ydpi="360.12244">
      <path
         id="rect4077-6-0"
         d="m 523.75415,141.30213 -3.65625,9.84375 c -0.84803,2.26167 -0.86212,4.33162 -0.0312,4.65625 0.83082,0.32463 2.18322,-1.23833 3.03125,-3.5 l 0.46875,-1.28125 10.0625,-5.625 c -1.59772,-0.31781 -3.10297,-0.73787 -4.5,-1.25 l -3.78125,2.09375 1.1875,-3.21875 c -1.0183,-0.51468 -1.95459,-1.10298 -2.7813,-1.71875 z"
         style="fill:#000000;fill-opacity:0.99685992;stroke:none;display:inline"
         inkscape:connector-curvature="0" />
      <path
         id="rect4077-6-0-8"
         d="m 557.77601,141.30213 3.65625,9.84375 c 0.84803,2.26167 0.86212,4.33162 0.0312,4.65625 -0.83082,0.32463 -2.18322,-1.23833 -3.03125,-3.5 l -0.46875,-1.28125 -10.0625,-5.625 c 1.59772,-0.31781 3.10297,-0.73787 4.5,-1.25 l 3.78125,2.09375 -1.1875,-3.21875 c 1.0183,-0.51468 1.95459,-1.10298 2.7813,-1.71875 z"
         style="fill:#000000;fill-opacity:0.99685992;stroke:none;display:inline"
         inkscape:connector-curvature="0" />
      <path
         inkscape:connector-curvature="0"
         id="path4074-6"
         d="m 562.07758,120.12 c -2.99811,4.77541 -11.46304,8.21875 -21.46875,8.21875 -9.67361,0 -17.90939,-3.22085 -21.15625,-7.75 l 0,7.75 0,2.71875 0,1 0,0.28125 c 0.26222,6.50973 9.69572,11.71875 21.28125,11.71875 11.58553,0 21.01903,-5.20902 21.28125,-11.71875 l 0.0625,0 0,-1.28125 0,-2.71875 0,-8.21875 z"
         mask="none"
         style="fill:#000000;fill-opacity:1;stroke:none;display:inline" />
      <path
         id="path4074-6-7"
         transform="translate(-5.9849075,-48.848755)"
         d="m 546.75,129.5625 -10.65625,8.6875 -10.65625,8.6875 c 0.93895,6.14705 10.06111,10.96875 21.1875,10.96875 11.12639,0 20.24855,-4.8217 21.1875,-10.96875 l 0.25,0 L 557.40625,138.25 546.75,129.5625 z"
         mask="none"
         style="fill:#000000;fill-opacity:1;stroke:none;display:inline"
         inkscape:connector-curvature="0" />
      <path
         id="path4074-6-71"
         transform="translate(-5.9849075,-48.848755)"
         d="m 568.0625,151.46875 c -2.99811,4.77541 -11.46304,8.21875 -21.46875,8.21875 -9.67361,0 -17.90939,-3.22085 -21.15625,-7.75 l 0,7.75 0,2.71875 0,1 0,0.28125 c 0.26222,6.50974 9.69572,11.71875 21.28125,11.71875 11.58553,0 21.01903,-5.20901 21.28125,-11.71875 l 0.0625,0 0,-1.28125 0,-2.71875 0,-8.21875 z m -38.3125,11 c 0.62345,0 1.125,0.67321 1.125,1.46875 0,0.79554 -0.50155,1.4375 -1.125,1.4375 -0.62345,0 -1.125,-0.64196 -1.125,-1.4375 0,-0.79554 0.50155,-1.46875 1.125,-1.46875 z"
         mask="none"
         style="fill:#000000;fill-opacity:1;stroke:none;display:inline"
         inkscape:connector-curvature="0" />
    </g>
  </g>
  <g
     inkscape:groupmode="layer"
     id="layer11"
     inkscape:label="glow"
     transform="translate(4.1078106,-4.0968122)"
     style="display:inline" />
</svg>
