<?xml version="1.0" encoding="UTF-8" standalone="no"?>
<!-- Created with Inkscape (http://www.inkscape.org/) -->

<svg
   xmlns:dc="http://purl.org/dc/elements/1.1/"
   xmlns:cc="http://creativecommons.org/ns#"
   xmlns:rdf="http://www.w3.org/1999/02/22-rdf-syntax-ns#"
   xmlns:svg="http://www.w3.org/2000/svg"
   xmlns="http://www.w3.org/2000/svg"
   xmlns:sodipodi="http://sodipodi.sourceforge.net/DTD/sodipodi-0.dtd"
   xmlns:inkscape="http://www.inkscape.org/namespaces/inkscape"
   width="632.01062"
   height="259.17221"
   id="svg2"
   version="1.1"
   inkscape:version="0.48.4 r9939"
   sodipodi:docname="logo-zippie-back.svg"
   inkscape:export-filename="/Users/dougtangren/code/scala/projects/northeast-scala-symposium/src/main/resources/www/images/2014-logo.png"
   inkscape:export-xdpi="90"
   inkscape:export-ydpi="90">
  <defs
     id="defs4">
    <inkscape:path-effect
       effect="skeletal"
       id="path-effect4070"
       is_visible="true"
       pattern="m 165.41421,-361.53033 1,0"
       copytype="single_stretched"
       prop_scale="1"
       scale_y_rel="false"
       spacing="0"
       normal_offset="0"
       tang_offset="0"
       prop_units="false"
       vertical_pattern="false"
       fuse_tolerance="0" />
    <inkscape:perspective
       sodipodi:type="inkscape:persp3d"
       inkscape:vp_x="0 : 526.18109 : 1"
       inkscape:vp_y="872.04724 : 1216.8128 : 1"
       inkscape:vp_z="744.09448 : 526.18109 : 1"
       inkscape:persp3d-origin="372.04724 : 350.78739 : 1"
       id="perspective4039" />
  </defs>
  <sodipodi:namedview
     id="base"
     pagecolor="#ffffff"
     bordercolor="#666666"
     borderopacity="1.0"
     inkscape:pageopacity="0.0"
     inkscape:pageshadow="2"
     inkscape:zoom="1.4142136"
     inkscape:cx="254.00794"
     inkscape:cy="231.56654"
     inkscape:document-units="px"
     inkscape:current-layer="text3031"
     showgrid="false"
     inkscape:window-width="1920"
     inkscape:window-height="1056"
     inkscape:window-x="0"
     inkscape:window-y="24"
     inkscape:window-maximized="1"
     fit-margin-top="10"
     fit-margin-left="10"
     fit-margin-right="10"
     fit-margin-bottom="10" />
  <metadata
     id="metadata7">
    <rdf:RDF>
      <cc:Work
         rdf:about="">
        <dc:format>image/svg+xml</dc:format>
        <dc:type
           rdf:resource="http://purl.org/dc/dcmitype/StillImage" />
        <dc:title />
      </cc:Work>
    </rdf:RDF>
  </metadata>
  <g
     inkscape:groupmode="layer"
     id="layer3"
     inkscape:label="background"
     style="display:inline"
     transform="translate(5.9849075,48.848755)">
    <rect
       style="fill:#000000;fill-opacity:0"
       id="rect3026"
       width="278.5"
       height="83.5"
       x="103"
       y="395.86218"
       rx="14.292993"
       ry="14.458333" />
    <rect
       style="fill:#000000;fill-opacity:0"
       id="rect3028"
       width="238"
       height="94"
       x="109.5"
       y="384.36218"
       rx="14.292993"
       ry="14.458333" />
    <rect
       style="fill:#000000;fill-opacity:0"
       id="rect3798"
       width="245.5"
       height="94.5"
       x="108.5"
       y="384.36218"
       rx="14.292993"
       ry="14.458333" />
    <rect
       style="fill:#000000;fill-opacity:0"
       id="rect3800"
       width="272.5"
       height="127"
       x="103.5"
       y="388.36218"
       rx="14.292993"
       ry="14.458333" />
    <path
       sodipodi:type="arc"
       style="fill:#e7ff20;fill-opacity:0.99685992;stroke:none"
       id="path3821"
       sodipodi:cx="130.28156"
       sodipodi:cy="102.59126"
       sodipodi:rx="101.65632"
       sodipodi:ry="95.41748"
       d="m 231.93787,102.59126 c 0,52.69762 -45.51308,95.41748 -101.65631,95.41748 -56.143239,0 -101.656323,-42.71986 -101.656323,-95.41748 0,-52.697617 45.513084,-95.4174777 101.656323,-95.4174777 56.14323,0 101.65631,42.7198607 101.65631,95.4174777 z"
       transform="matrix(0.88786382,0,0,0.90292021,-3.322113,-19.229784)"
       inkscape:export-filename="/Users/dougtangren/Desktop/2014-logo.png"
       inkscape:export-xdpi="90"
       inkscape:export-ydpi="90" />
  </g>
  <g
     transform="translate(5.9849075,48.848755)"
     style="display:inline"
     inkscape:label="direction-text copy"
     id="g3030"
     inkscape:groupmode="layer">
    <g
       style="font-size:124px;font-style:normal;font-variant:normal;font-weight:bold;font-stretch:normal;text-align:start;line-height:125%;letter-spacing:0px;word-spacing:0px;writing-mode:lr-tb;text-anchor:start;fill:#000000;fill-opacity:0.99685992;stroke:none;font-family:Montserrat"
       id="text3036"
       transform="translate(0.5441265,0)">
      <g
         id="g4005">
        <g
           id="g4018">
          <g
             transform="translate(-0.5441265,0)"
             style="display:inline;font-size:124px;font-style:normal;font-variant:normal;font-weight:bold;font-stretch:normal;text-align:start;line-height:125%;letter-spacing:0px;word-spacing:0px;writing-mode:lr-tb;text-anchor:start;fill:#000000;fill-opacity:0.99685992000000001;stroke:none;font-family:Montserrat;-inkscape-font-specification:Montserrat Bold"
             id="text3032">
            <path
               d="m 23.615092,18.162183 0,37.2 -18.5999995,0 0,-66.712 18.5999995,0 0,7.4399996 c 5.621301,-5.703935 11.945294,-8.5559326 18.972,-8.5559996 7.026614,6.7e-5 12.895941,2.480065 17.608,7.4399996 4.794598,4.96005545 7.191929,11.5733822 7.192,19.8400004 l 0,40.548 -18.6,0 0,-37.696 C 48.78704,7.4155639 45.02571,2.2902357 37.503092,2.2901826 c -3.720037,5.31e-5 -6.985367,1.3640517 -9.796,4.092 -2.728028,2.6453797 -4.092027,6.5720424 -4.092,11.7800004"
               id="path3041"
               style="" />
            <path
               d="m 99.090405,22.006183 c -2.4e-5,5.456028 1.529305,9.920023 4.587995,13.392 3.14131,3.38935 7.1093,5.084014 11.904,5.084 4.87729,1.4e-5 8.84529,-1.69465 11.904,-5.084 3.14128,-3.471977 4.71195,-7.935972 4.712,-13.392 -5e-5,-5.455962 -1.57072,-9.919957 -4.712,-13.3920004 -3.05871,-3.4719498 -7.02671,-5.207948 -11.904,-5.208 -4.7947,5.2e-5 -8.76269,1.7360502 -11.904,5.208 -3.05869,3.4720434 -4.588019,7.9360384 -4.587995,13.3920004 m 51.831995,0 c -7e-5,9.672023 -3.34807,17.814682 -10.044,24.428 -6.69605,6.613335 -15.12805,9.919999 -25.296,9.92 -10.08536,-10e-7 -18.476017,-3.306665 -25.171995,-9.92 -6.696008,-6.613318 -10.044005,-14.755977 -10.044,-24.428 -5e-6,-9.671957 3.347992,-17.8146159 10.044,-24.4280004 6.695978,-6.6959355 15.086635,-10.0439326 25.171995,-10.0439996 10.16795,6.7e-5 18.59995,3.3480641 25.296,10.0439996 6.69593,6.6133845 10.04393,14.7560434 10.044,24.4280004"
               id="path3043"
               style="" />
            <path
               d="m 199.70865,5.0181826 c -5.5387,5.04e-5 -9.67203,1.9840484 -12.4,5.9520004 -2.72802,3.885373 -4.09202,9.052035 -4.092,15.5 l 0,28.892 -18.6,0 0,-66.712 18.6,0 0,8.8039996 c 2.39731,-2.7279393 5.37331,-5.0426037 8.928,-6.944 3.6373,-1.9012666 7.31596,-2.8932656 11.036,-2.9759996 l 0.124,17.4839996 -3.596,0"
               id="path3045"
               style="" />
            <path
               d="m 237.67203,2.0421826 0,29.8840004 c -3e-5,2.562687 0.6613,4.588018 1.984,6.076 1.32263,1.405349 2.8933,2.108015 4.712,2.108 3.47196,1.5e-5 6.40662,-1.57065 8.804,-4.712 l 6.944,13.02 c -5.78671,5.290668 -11.90404,7.935999 -18.352,7.936 -6.36536,-10e-7 -11.78002,-2.107999 -16.244,-6.324 -4.38135,-4.215991 -6.57201,-9.961318 -6.572,-17.236 l 0,-30.7520004 -7.812,0 0,-13.3919996 7.812,0 0,-19.964 18.724,0 0,19.964 16.12,0 0,13.3919996 -16.12,0"
               id="path3047"
               style="" />
            <path
               id="path3049"
               transform="translate(-5.9849075,-48.848755)"
               d="M 275.96875 12.1875 L 275.96875 104.21875 L 294.5625 104.21875 L 294.5625 68.25 C 294.56247 63.042041 295.92822 59.114128 298.65625 56.46875 C 301.46688 53.740801 304.71746 52.375052 308.4375 52.375 C 315.96012 52.375052 319.71869 57.49938 319.71875 67.75 L 319.71875 104.15625 L 319.71875 104.21875 L 319.59375 118.5 L 311.78125 118.5 L 311.78125 131.90625 L 319.59375 131.90625 L 319.59375 162.65625 C 319.59373 169.93093 321.7749 175.65901 326.15625 179.875 C 330.62022 184.091 336.04088 186.21875 342.40625 186.21875 C 348.8542 186.21875 354.96328 183.57192 360.75 178.28125 L 353.8125 165.25 C 351.41512 168.39135 348.47195 169.96877 345 169.96875 C 343.18129 169.96877 341.60388 169.2491 340.28125 167.84375 C 338.95855 166.35577 338.31246 164.34394 338.3125 161.78125 L 338.3125 131.90625 L 354.4375 131.90625 L 354.4375 118.5 L 338.3125 118.5 L 338.3125 104.21875 L 338.3125 103.9375 L 338.3125 63.65625 C 338.31243 55.389632 335.9196 48.772555 331.125 43.8125 C 326.33027 38.852565 320.43286 36.375067 313.40625 36.375 C 306.46221 36.375067 300.1838 39.233565 294.5625 44.9375 L 294.5625 12.1875 L 275.96875 12.1875 z "
               style="" />
          </g>
          <path
             d="m 153.27497,126.69041 c -7.52273,7.10934 -16.36805,10.664 -26.536,10.664 -10.08537,0 -18.43469,-3.1 -25.048,-9.3 -6.613346,-6.28265 -9.920009,-14.67331 -9.920004,-25.172 -5e-6,-10.498621 3.347992,-18.847946 10.044004,-25.047999 6.77864,-6.199935 14.75597,-9.299932 23.932,-9.3 9.17595,6.8e-5 16.94661,2.769399 23.312,8.308 6.44793,5.538721 9.67192,13.144047 9.672,22.816 l 0,9.919999 -48.608,0 c 0.57864,3.63736 2.47997,6.61336 5.704,8.928 3.22396,2.31468 6.86129,3.47202 10.912,3.472 6.53062,2e-5 11.90394,-2.19065 16.12,-6.572 l 10.416,11.284 m -13.392,-30.379999 c -0.41339,-3.967955 -1.90139,-7.026619 -4.464,-9.176 -2.56272,-2.149281 -5.70405,-3.223947 -9.424,-3.224 -3.63737,5.3e-5 -6.98537,1.116052 -10.044,3.348 -3.0587,2.232047 -4.83603,5.249378 -5.332,9.052 l 29.264,0"
             id="path3052"
             inkscape:connector-curvature="0" />
          <path
             d="m 228.69022,136.36241 -17.484,0 0,-8.06 c -4.79471,6.03467 -10.74671,9.052 -17.856,9.052 -7.02669,0 -12.93735,-2.02533 -17.732,-6.076 -4.79468,-4.13332 -7.19201,-9.58932 -7.192,-16.368 -1e-5,-6.8613 2.47999,-11.98663 7.44,-15.375999 4.95998,-3.389293 11.73864,-5.083958 20.336,-5.084 l 13.888,0 0,-0.372 c -5e-5,-7.109283 -3.76138,-10.663947 -11.284,-10.664 -3.22404,5.3e-5 -6.6547,0.661386 -10.292,1.984 -3.55469,1.24005 -6.57202,2.810715 -9.052,4.712 l -8.308,-12.028 c 8.76265,-6.365268 18.7653,-9.547932 30.008,-9.548 8.10128,6.8e-5 14.71461,2.0254 19.84,6.076 5.12527,4.050725 7.68793,10.457385 7.688,19.22 l 0,42.531999 m -18.724,-25.42 0,-3.224 -11.656,0 c -7.44003,3e-5 -11.16003,2.31469 -11.16,6.944 -3e-5,2.39735 0.86797,4.25735 2.604,5.58 1.81863,1.24002 4.3813,1.86002 7.688,1.86 3.30663,2e-5 6.19996,-0.99198 8.68,-2.976 2.56262,-2.06665 3.84395,-4.79464 3.844,-8.184"
             id="path3054"
             inkscape:connector-curvature="0" />
          <path
             d="m 295.86722,115.65441 c -6e-5,6.53068 -2.43873,11.78001 -7.316,15.748 -4.79472,3.968 -10.91204,5.952 -18.352,5.952 -4.96003,0 -10.12669,-0.868 -15.5,-2.604 -5.37335,-1.81866 -10.20935,-4.46399 -14.508,-7.936 l 8.184,-11.656 c 6.94398,5.37335 14.34264,8.06001 22.196,8.06 2.39729,10e-6 4.29862,-0.45465 5.704,-1.364 1.40529,-0.99198 2.10795,-2.27332 2.108,-3.844 -5e-5,-1.57065 -0.99204,-3.01731 -2.976,-4.34 -1.90137,-1.32264 -4.71204,-2.56264 -8.432,-3.72 -3.63736,-1.1573 -6.44803,-2.1493 -8.432,-2.976 -1.90136,-0.82663 -4.09202,-2.0253 -6.572,-3.596 -5.04268,-3.1413 -7.56401,-7.770624 -7.564,-13.887999 -1e-5,-6.199946 2.47999,-11.242608 7.44,-15.128 4.95998,-3.885267 11.36664,-5.827932 19.22,-5.828 7.85329,6.8e-5 15.70661,2.645399 23.56,7.936 l -6.944,12.4 c -5.78672,-3.967948 -11.57338,-5.951946 -17.36,-5.952 -5.70403,5.4e-5 -8.55603,1.570719 -8.556,4.712 -3e-5,1.736047 0.9093,3.100046 2.728,4.092 1.81863,0.992044 4.83596,2.149376 9.052,3.472 4.21596,1.322707 7.19195,2.356039 8.928,3.1 1.81862,0.661371 3.96795,1.736039 6.448,3.223999 4.62927,2.8107 6.94394,7.5227 6.944,14.136"
             id="path3056"
             inkscape:connector-curvature="0" />
        </g>
      </g>
    </g>
  </g>
  <g
     inkscape:groupmode="layer"
     id="layer9"
     inkscape:label="ne-dot"
     style="display:inline"
     transform="translate(5.9849075,48.848755)">
    <path
       style="fill:#000000;fill-opacity:1;stroke:none"
       d="m 358.76443,-21.783117 c 0,4.686291 -3.6407,8.48528 -8.13173,8.48528 -4.49102,0 -8.13172,-3.798989 -8.13172,-8.48528 0,-4.686292 3.6407,-8.485281 8.13172,-8.485281 4.49103,0 8.13173,3.798989 8.13173,8.485281 z"
       id="path3033"
       inkscape:connector-curvature="0" />
  </g>
  <g
     style="display:inline"
     transform="translate(5.9849075,48.848755)"
     inkscape:label="scala-text copy"
     id="g3060"
     inkscape:groupmode="layer">
    <g
       style="font-size:80px;font-style:normal;font-variant:normal;font-weight:bold;font-stretch:normal;text-align:start;line-height:125%;letter-spacing:0px;word-spacing:0px;writing-mode:lr-tb;text-anchor:start;fill:#000000;fill-opacity:0.99685992;stroke:none;font-family:Montserrat"
       id="text3062"
       transform="translate(-20,0)">
      <path
         d="m 411.69166,33.778836 c -3e-5,4.213342 -1.57337,7.600006 -4.72,10.16 -3.09336,2.560001 -7.04002,3.839999 -11.84,3.84 -3.20001,-10e-7 -6.53334,-0.56 -10,-1.68 -3.46667,-1.173331 -6.58667,-2.879996 -9.36,-5.12 l 5.28,-7.52 c 4.47999,3.466677 9.25332,5.200008 14.32,5.2 1.54665,8e-6 2.77331,-0.293325 3.68,-0.88 0.90664,-0.63999 1.35998,-1.466656 1.36,-2.48 -2e-5,-1.013321 -0.64002,-1.946653 -1.92,-2.8 -1.22669,-0.853318 -3.04002,-1.653317 -5.44,-2.4 -2.34668,-0.746649 -4.16001,-1.386648 -5.44,-1.92 -1.22668,-0.533314 -2.64001,-1.306646 -4.24,-2.32 -3.25334,-2.026643 -4.88,-5.013307 -4.88,-8.96 0,-3.999966 1.6,-7.2532959 4.8,-9.7600001 3.19999,-2.5066242 7.33332,-3.7599562 12.4,-3.76 5.06664,4.38e-5 10.1333,1.7067087 15.2,5.12 l -4.48,8.0000001 c -3.73336,-2.559967 -7.46669,-3.839966 -11.2,-3.84 -3.68001,3.4e-5 -5.52001,1.013367 -5.52,3.04 -1e-5,1.12003 0.58665,2.000029 1.76,2.64 1.17332,0.640028 3.11998,1.386694 5.84,2.24 2.71998,0.853359 4.63998,1.520025 5.76,2 1.17331,0.426691 2.55997,1.120023 4.16,2.08 2.98663,1.813354 4.47997,4.853351 4.48,9.12"
         id="path3067"
         inkscape:connector-curvature="0" />
      <path
         d="m 441.49416,37.138836 c 3.99997,1e-5 7.59997,-1.999988 10.8,-6 l 7.12,8 c -5.5467,5.760002 -11.5467,8.639999 -18,8.64 -6.45335,-10e-7 -11.92001,-2.026665 -16.4,-6.08 -4.42667,-4.106657 -6.64,-9.439985 -6.64,-16 0,-6.613305 2.24,-11.9733 6.72,-16.0800001 4.53332,-4.1599583 9.89332,-6.2399562 16.08,-6.24 3.09331,4.38e-5 6.2133,0.6400431 9.36,1.92 3.19997,1.2800406 5.99996,3.173372 8.4,5.6800001 l -6.24,8.16 c -1.3867,-1.653304 -3.09336,-2.933302 -5.12,-3.84 -1.97336,-0.906634 -3.94669,-1.359967 -5.92,-1.36 -3.14669,3.3e-5 -5.86668,1.040032 -8.16,3.12 -2.24001,2.026695 -3.36001,4.880025 -3.36,8.56 -1e-5,3.626684 1.11999,6.453348 3.36,8.48 2.29332,2.026678 4.95998,3.04001 8,3.04"
         id="path3069"
         inkscape:connector-curvature="0" />
      <path
         d="m 503.82041,47.138836 -11.28,0 0,-5.2 c -3.09336,3.893335 -6.93335,5.839999 -11.52,5.84 -4.53334,-10e-7 -8.34667,-1.306666 -11.44,-3.92 -3.09333,-2.666661 -4.64,-6.186657 -4.64,-10.56 0,-4.426648 1.6,-7.733312 4.8,-9.92 3.19999,-2.186641 7.57332,-3.279973 13.12,-3.28 l 8.96,0 0,-0.24 c -3e-5,-4.586635 -2.42669,-6.879966 -7.28,-6.88 -2.08002,3.4e-5 -4.29335,0.4267 -6.64,1.28 -2.29334,0.800032 -4.24001,1.813364 -5.84,3.04 l -5.36,-7.7600001 c 5.65333,-4.106625 12.10665,-6.1599562 19.36,-6.16 5.22664,4.38e-5 9.4933,1.3067091 12.8,3.92 3.30663,2.6133706 4.95996,6.7467001 4.96,12.4000001 l 0,27.44 m -12.08,-16.4 0,-2.08 -7.52,0 c -4.80001,1.8e-5 -7.20001,1.49335 -7.2,4.48 -1e-5,1.546679 0.55999,2.746678 1.68,3.6 1.17332,0.80001 2.82665,1.200009 4.96,1.2 2.13331,9e-6 3.99998,-0.63999 5.6,-1.92 1.65331,-1.333321 2.47997,-3.093319 2.48,-5.28"
         id="path3071"
         inkscape:connector-curvature="0" />
      <path
         d="m 526.76041,47.138836 -12,0 0,-59.36 12,0 0,59.36"
         id="path3073"
         inkscape:connector-curvature="0" />
      <path
         d="m 574.75791,47.138836 -11.28,0 0,-5.2 c -3.09336,3.893335 -6.93335,5.839999 -11.52,5.84 -4.53334,-10e-7 -8.34667,-1.306666 -11.44,-3.92 -3.09333,-2.666661 -4.64,-6.186657 -4.64,-10.56 0,-4.426648 1.6,-7.733312 4.8,-9.92 3.19999,-2.186641 7.57332,-3.279973 13.12,-3.28 l 8.96,0 0,-0.24 c -3e-5,-4.586635 -2.42669,-6.879966 -7.28,-6.88 -2.08002,3.4e-5 -4.29335,0.4267 -6.64,1.28 -2.29334,0.800032 -4.24001,1.813364 -5.84,3.04 l -5.36,-7.7600001 c 5.65333,-4.106625 12.10665,-6.1599562 19.36,-6.16 5.22664,4.38e-5 9.4933,1.3067091 12.8,3.92 3.30663,2.6133706 4.95996,6.7467001 4.96,12.4000001 l 0,27.44 m -12.08,-16.4 0,-2.08 -7.52,0 c -4.80001,1.8e-5 -7.20001,1.49335 -7.2,4.48 -10e-6,1.546679 0.55999,2.746678 1.68,3.6 1.17332,0.80001 2.82665,1.200009 4.96,1.2 2.13331,9e-6 3.99998,-0.63999 5.6,-1.92 1.65331,-1.333321 2.47997,-3.093319 2.48,-5.28"
         id="path3075"
         inkscape:connector-curvature="0" />
    </g>
  </g>
  <g
     inkscape:groupmode="layer"
     id="layer1"
     inkscape:label="div"
     style="display:inline"
     transform="translate(5.9849075,48.848755)">
    <rect
       style="fill:#000000;fill-opacity:0.99685992;stroke:none"
       id="rect3801"
       width="131.9301"
       height="2.2019417"
       x="98.093201"
       y="146.867"
       inkscape:export-filename="/Users/dougtangren/Desktop/2014-logo.png"
       inkscape:export-xdpi="90"
       inkscape:export-ydpi="90" />
  </g>
  <g
     inkscape:groupmode="layer"
     id="layer4"
     inkscape:label="tower"
     style="display:inline"
     transform="translate(5.9849075,48.848755)">
    <g
       id="g4417"
       transform="matrix(0.99269039,0,0,1.1144783,-92.547205,-32.165405)">
      <path
         id="rect4077-6-0"
         d="m 523.75415,141.30213 -3.65625,9.84375 c -0.84803,2.26167 -0.86212,4.33162 -0.0312,4.65625 0.83082,0.32463 2.18322,-1.23833 3.03125,-3.5 l 0.46875,-1.28125 10.0625,-5.625 c -1.59772,-0.31781 -3.10297,-0.73787 -4.5,-1.25 l -3.78125,2.09375 1.1875,-3.21875 c -1.0183,-0.51468 -1.95459,-1.10298 -2.7813,-1.71875 z"
         style="fill:#000000;fill-opacity:0.99685992;stroke:none;display:inline"
         inkscape:connector-curvature="0" />
      <path
         id="rect4077-6-0-8"
         d="m 557.77601,141.30213 3.65625,9.84375 c 0.84803,2.26167 0.86212,4.33162 0.0312,4.65625 -0.83082,0.32463 -2.18322,-1.23833 -3.03125,-3.5 l -0.46875,-1.28125 -10.0625,-5.625 c 1.59772,-0.31781 3.10297,-0.73787 4.5,-1.25 l 3.78125,2.09375 -1.1875,-3.21875 c 1.0183,-0.51468 1.95459,-1.10298 2.7813,-1.71875 z"
         style="fill:#000000;fill-opacity:0.99685992;stroke:none;display:inline"
         inkscape:connector-curvature="0" />
      <path
         inkscape:connector-curvature="0"
         id="path4074-6"
         d="m 562.07758,120.12 c -2.99811,4.77541 -11.46304,8.21875 -21.46875,8.21875 -9.67361,0 -17.90939,-3.22085 -21.15625,-7.75 l 0,7.75 0,2.71875 0,1 0,0.28125 c 0.26222,6.50973 9.69572,11.71875 21.28125,11.71875 11.58553,0 21.01903,-5.20902 21.28125,-11.71875 l 0.0625,0 0,-1.28125 0,-2.71875 0,-8.21875 z"
         mask="none"
         style="fill:#000000;fill-opacity:1;stroke:none;display:inline" />
      <path
         id="path4074-6-7"
         transform="translate(-5.9849075,-48.848755)"
         d="m 546.75,129.5625 -10.65625,8.6875 -10.65625,8.6875 c 0.93895,6.14705 10.06111,10.96875 21.1875,10.96875 11.12639,0 20.24855,-4.8217 21.1875,-10.96875 l 0.25,0 L 557.40625,138.25 546.75,129.5625 z"
         mask="none"
         style="fill:#000000;fill-opacity:1;stroke:none;display:inline"
         inkscape:connector-curvature="0" />
      <path
         id="path4074-6-71"
         transform="translate(-5.9849075,-48.848755)"
         d="m 568.0625,151.46875 c -2.99811,4.77541 -11.46304,8.21875 -21.46875,8.21875 -9.67361,0 -17.90939,-3.22085 -21.15625,-7.75 l 0,7.75 0,2.71875 0,1 0,0.28125 c 0.26222,6.50974 9.69572,11.71875 21.28125,11.71875 11.58553,0 21.01903,-5.20901 21.28125,-11.71875 l 0.0625,0 0,-1.28125 0,-2.71875 0,-8.21875 z m -38.3125,11 c 0.62345,0 1.125,0.67321 1.125,1.46875 0,0.79554 -0.50155,1.4375 -1.125,1.4375 -0.62345,0 -1.125,-0.64196 -1.125,-1.4375 0,-0.79554 0.50155,-1.46875 1.125,-1.46875 z"
         mask="none"
         style="fill:#000000;fill-opacity:1;stroke:none;display:inline"
         inkscape:connector-curvature="0" />
    </g>
    <g
       style="font-size:48px;font-style:normal;font-variant:normal;font-weight:300;font-stretch:normal;line-height:125%;letter-spacing:14.02999973px;word-spacing:0px;fill:#000000;fill-opacity:1;stroke:none;font-family:Signika;-inkscape-font-specification:Signika Light"
       id="text3031">
      <path
         d="m 4.2763607,186.57915 c 0.031998,-0.99199 0.4959978,-1.85599 1.392,-2.592 1.4399954,0.83201 2.7199941,1.40801 3.84,1.728 1.1519923,0.32 2.1919913,0.48 3.1200003,0.48 0.799989,0 1.487988,-0.096 2.064,-0.288 0.607987,-0.22399 1.119986,-0.49599 1.536,-0.816 0.415986,-0.35199 0.735985,-0.73599 0.96,-1.152 0.223985,-0.41599 0.351985,-0.83199 0.384,-1.248 -1.5e-5,-0.95999 -0.304015,-1.75999 -0.912,-2.4 -0.576014,-0.67199 -1.440013,-1.23199 -2.592,-1.68 l -2.688,-1.056 c -2.0480071,-0.79999 -3.5840056,-1.72798 -4.6080003,-2.784 -1.0240032,-1.08798 -1.5360027,-2.38398 -1.536,-3.888 -2.7e-6,-0.99198 0.2079971,-1.88798 0.624,-2.688 0.4159963,-0.83198 0.9919957,-1.53598 1.728,-2.112 0.7359942,-0.57597 1.5999933,-1.02397 2.5920003,-1.344 0.991991,-0.31997 2.07999,-0.47997 3.264,-0.48 2.367986,3e-5 4.735984,0.52803 7.104,1.584 -1.8e-5,1.12002 -0.368018,2.04802 -1.104,2.784 -1.216016,-0.54398 -2.336015,-0.92798 -3.36,-1.152 -0.992013,-0.22398 -1.904012,-0.33598 -2.736,-0.336 -1.47201,2e-5 -2.592009,0.33602 -3.3600003,1.008 -0.7360067,0.67202 -1.1040064,1.44002 -1.104,2.304 -6.4e-6,0.92802 0.2879934,1.66402 0.864,2.208 0.5759923,0.51202 1.4879913,1.00802 2.7360003,1.488 l 2.832,1.104 c 3.967983,1.56801 5.951981,3.88801 5.952,6.96 -1.9e-5,2.14401 -0.816018,3.808 -2.448,4.992 -1.632015,1.184 -3.840013,1.776 -6.624,1.776 -2.7200072,0 -5.3600046,-0.8 -7.9200003,-2.4"
         style=""
         id="path3036" />
      <path
         d="m 58.27086,165.07515 -6.576,22.512 c -1.216014,4.128 -2.512012,7.04 -3.888,8.736 -1.37601,1.69599 -3.440008,2.54399 -6.192,2.544 -1.408003,-1e-5 -2.704002,-0.20801 -3.888,-0.624 -0.096,-0.89601 0.159999,-1.76001 0.768,-2.592 0.991997,0.35199 2.047996,0.52799 3.168,0.528 1.695993,-1e-5 2.991992,-0.576 3.888,-1.728 0.89599,-1.152 1.71199,-2.944 2.448,-5.376 l 0.144,-0.48 c -0.83201,-0.064 -1.47201,-0.256 -1.92,-0.576 -0.416009,-0.32 -0.768009,-0.912 -1.056,-1.776 l -6.72,-21.12 c 0.991997,-0.41597 1.695997,-0.62397 2.112,-0.624 0.927995,3e-5 1.551995,0.56003 1.872,1.68 l 3.792,12.048 c 0.12799,0.38401 0.86399,2.88001 2.208,7.488 0.06399,0.224 0.223988,0.336 0.48,0.336 l 5.856,-21.216 c 0.415982,-0.12797 0.959981,-0.19197 1.632,-0.192 0.70398,3e-5 1.295979,0.096 1.776,0.288 l 0.096,0.144"
         style=""
         id="path3038" />
      <path
         d="m 90.357108,173.04315 c -1.7e-5,-1.91998 -0.256017,-3.29598 -0.768,-4.128 -0.480016,-0.83198 -1.280015,-1.24798 -2.4,-1.248 -1.088013,2e-5 -2.224012,0.33602 -3.408,1.008 -1.152009,0.67202 -2.144008,1.58402 -2.976,2.736 l 0,16.992 c -0.480007,0.096 -1.072006,0.144 -1.776,0.144 -0.704005,0 -1.296004,-0.048 -1.776,-0.144 l 0,-23.376 0.288,-0.336 1.344,0 c 0.767994,3e-5 1.279993,0.20803 1.536,0.624 0.255993,0.38403 0.383993,1.00802 0.384,1.872 l 0,0.72 c 2.01599,-2.30397 4.351988,-3.45597 7.008,-3.456 2.655983,3e-5 4.463981,1.20003 5.424,3.6 2.623977,-2.39997 5.215975,-3.59997 7.776002,-3.6 2.01597,3e-5 3.51997,0.68803 4.512,2.064 0.99196,1.34402 1.48796,3.12002 1.488,5.328 l 0,12 c -4e-5,1.82401 0.19196,3.184 0.576,4.08 -0.54404,0.512 -1.29603,0.768 -2.256,0.768 -1.21603,0 -1.82403,-0.784 -1.824,-2.352 l 0,-13.344 c -3e-5,-1.91998 -0.25603,-3.27998 -0.768,-4.08 -0.48003,-0.83198 -1.28003,-1.24798 -2.4,-1.248 -1.088028,2e-5 -2.208027,0.32002 -3.360002,0.96 -1.152023,0.64002 -2.176021,1.53602 -3.072,2.688 l 0,17.088 c -0.48002,0.096 -1.07202,0.144 -1.776,0.144 -0.704018,0 -1.296018,-0.048 -1.776,-0.144 l 0,-15.36"
         style=""
         id="path3040" />
      <path
         d="m 132.75586,186.81915 0,9.504 c -1e-5,0.86399 -0.12801,1.47199 -0.384,1.824 -0.25601,0.38399 -0.76801,0.57599 -1.536,0.576 l -1.296,0 -0.288,-0.288 0,-33.456 0.288,-0.288 1.248,0 c 0.76799,3e-5 1.27999,0.20803 1.536,0.624 0.28799,0.38403 0.43199,1.02402 0.432,1.92 l 0,0.24 c 1.91999,-2.14397 4.20799,-3.21597 6.864,-3.216 2.71998,3e-5 4.76798,1.10403 6.144,3.312 1.37597,2.17602 2.06397,5.20002 2.064,9.072 -3e-5,1.88801 -0.25603,3.58401 -0.768,5.088 -0.48002,1.50401 -1.13602,2.78401 -1.968,3.84 -0.80002,1.024 -1.72802,1.824 -2.784,2.4 -1.05602,0.544 -2.14402,0.816 -3.264,0.816 -2.20801,0 -4.30401,-0.656 -6.288,-1.968 m 0,-15.6 0,12.336 c 1.95199,1.44001 3.79199,2.16001 5.52,2.16 1.72798,1e-5 3.15198,-0.76799 4.272,-2.304 1.11998,-1.53599 1.67998,-3.85599 1.68,-6.96 -2e-5,-1.53598 -0.14402,-2.86398 -0.432,-3.984 -0.25602,-1.15198 -0.60802,-2.09598 -1.056,-2.832 -0.44802,-0.76798 -0.97602,-1.32798 -1.584,-1.68 -0.57602,-0.38398 -1.20002,-0.57598 -1.872,-0.576 -1.28002,2e-5 -2.49601,0.33602 -3.648,1.008 -1.15201,0.67202 -2.11201,1.61602 -2.88,2.832"
         style=""
         id="path3042" />
      <path
         d="m 183.33261,186.43515 c -1.69602,1.696 -3.90402,2.544 -6.624,2.544 -1.60001,0 -3.02401,-0.304 -4.272,-0.912 -1.21601,-0.608 -2.25601,-1.44 -3.12,-2.496 -0.83201,-1.08799 -1.47201,-2.38399 -1.92,-3.888 -0.41601,-1.53599 -0.62401,-3.21599 -0.624,-5.04 -10e-6,-1.82398 0.20799,-3.48798 0.624,-4.992 0.44799,-1.53598 1.08799,-2.84798 1.92,-3.936 0.86399,-1.08798 1.90399,-1.93597 3.12,-2.544 1.24799,-0.60797 2.67199,-0.91197 4.272,-0.912 1.59998,3e-5 3.00798,0.30403 4.224,0.912 1.24798,0.60803 2.28798,1.45602 3.12,2.544 0.86398,1.08802 1.51997,2.40002 1.968,3.936 0.44797,1.50402 0.67197,3.16802 0.672,4.992 -3e-5,4.28801 -1.12003,7.55201 -3.36,9.792 m -6.576,-0.24 c 2.04798,0 3.59998,-0.86399 4.656,-2.592 1.08798,-1.75999 1.63198,-4.07999 1.632,-6.96 -2e-5,-1.27998 -0.12802,-2.49598 -0.384,-3.648 -0.22402,-1.18398 -0.59202,-2.20798 -1.104,-3.072 -0.51202,-0.89598 -1.16802,-1.59998 -1.968,-2.112 -0.80002,-0.51198 -1.76002,-0.76798 -2.88,-0.768 -1.08802,2e-5 -2.03201,0.25602 -2.832,0.768 -0.76801,0.48002 -1.40801,1.15202 -1.92,2.016 -0.51201,0.86402 -0.89601,1.88802 -1.152,3.072 -0.22401,1.15202 -0.33601,2.40002 -0.336,3.744 -1e-5,1.34401 0.11199,2.59201 0.336,3.744 0.25599,1.15201 0.62399,2.16001 1.104,3.024 0.51199,0.86401 1.16799,1.55201 1.968,2.064 0.79999,0.48 1.75998,0.72 2.88,0.72"
         style=""
         id="path3044" />
      <path
         d="m 205.0201,186.57915 c 0.032,-0.99199 0.496,-1.85599 1.392,-2.592 1.44,0.83201 2.72,1.40801 3.84,1.728 1.152,0.32 2.192,0.48 3.12,0.48 0.79999,0 1.48799,-0.096 2.064,-0.288 0.60799,-0.22399 1.11999,-0.49599 1.536,-0.816 0.41599,-0.35199 0.73599,-0.73599 0.96,-1.152 0.22399,-0.41599 0.35199,-0.83199 0.384,-1.248 -1e-5,-0.95999 -0.30401,-1.75999 -0.912,-2.4 -0.57601,-0.67199 -1.44001,-1.23199 -2.592,-1.68 l -2.688,-1.056 c -2.048,-0.79999 -3.584,-1.72798 -4.608,-2.784 -1.024,-1.08798 -1.536,-2.38398 -1.536,-3.888 0,-0.99198 0.208,-1.88798 0.624,-2.688 0.416,-0.83198 0.992,-1.53598 1.728,-2.112 0.736,-0.57597 1.6,-1.02397 2.592,-1.344 0.992,-0.31997 2.07999,-0.47997 3.264,-0.48 2.36799,3e-5 4.73599,0.52803 7.104,1.584 -1e-5,1.12002 -0.36801,2.04802 -1.104,2.784 -1.21601,-0.54398 -2.33601,-0.92798 -3.36,-1.152 -0.99201,-0.22398 -1.90401,-0.33598 -2.736,-0.336 -1.472,2e-5 -2.592,0.33602 -3.36,1.008 -0.736,0.67202 -1.104,1.44002 -1.104,2.304 0,0.92802 0.288,1.66402 0.864,2.208 0.576,0.51202 1.488,1.00802 2.736,1.488 l 2.832,1.104 c 3.96799,1.56801 5.95199,3.88801 5.952,6.96 -1e-5,2.14401 -0.81601,3.808 -2.448,4.992 -1.63201,1.184 -3.84001,1.776 -6.624,1.776 -2.72,0 -5.36,-0.8 -7.92,-2.4"
         style=""
         id="path3046" />
      <path
         d="m 246.2466,168.14715 0,20.256 c -0.48,0.096 -1.072,0.144 -1.776,0.144 -0.704,0 -1.296,-0.048 -1.776,-0.144 l 0,-18.528 c 0,-0.89598 -0.144,-1.50398 -0.432,-1.824 -0.288,-0.31998 -0.8,-0.47998 -1.536,-0.48 l -0.432,0 c -0.128,-0.35198 -0.192,-0.78398 -0.192,-1.296 0,-0.51197 0.064,-0.95997 0.192,-1.344 0.608,-0.064 1.104,-0.11197 1.488,-0.144 0.384,-0.064 0.688,-0.096 0.912,-0.096 l 0.384,0 c 0.992,3e-5 1.76,0.32003 2.304,0.96 0.576,0.60802 0.864,1.44002 0.864,2.496 m -4.704,-11.52 c 0.512,-0.31997 1.248,-0.47997 2.208,-0.48 0.928,3e-5 1.568,0.14403 1.92,0.432 0.352,0.28803 0.528,0.89603 0.528,1.824 0,0.92803 -0.192,1.55203 -0.576,1.872 -0.384,0.28803 -1.008,0.43203 -1.872,0.432 -0.768,3e-5 -1.392,-0.11197 -1.872,-0.336 -0.448,-0.25597 -0.672,-0.91197 -0.672,-1.968 0,-0.73597 0.112,-1.32797 0.336,-1.776"
         style=""
         id="path3048" />
      <path
         d="m 268.38185,181.34715 0,-11.952 c 0,-1.69598 -0.192,-3.05598 -0.576,-4.08 0.544,-0.51197 1.296,-0.76797 2.256,-0.768 1.216,3e-5 1.82399,0.78403 1.824,2.352 l 0,13.296 c -1e-5,2.01601 0.25599,3.42401 0.768,4.224 0.51199,0.80001 1.40799,1.20001 2.688,1.2 1.27999,1e-5 2.60799,-0.33599 3.984,-1.008 1.37599,-0.70399 2.52798,-1.59999 3.456,-2.688 l 0,-17.04 c 0.19198,-0.064 0.44798,-0.11197 0.768,-0.144 0.31998,-0.032 0.65598,-0.048 1.008,-0.048 0.35198,3e-5 0.67198,0.016 0.96,0.048 0.31998,0.032 0.59198,0.08 0.816,0.144 l 0,16.896 c -2e-5,2.56001 0.44798,4.272 1.344,5.136 -0.28802,0.896 -0.83202,1.504 -1.632,1.824 -1.56802,-0.512 -2.57602,-1.696 -3.024,-3.552 -1.08802,1.088 -2.40001,1.968 -3.936,2.64 -1.50401,0.672 -3.02401,1.008 -4.56,1.008 -2.14401,0 -3.712,-0.688 -4.704,-2.064 -0.96,-1.37599 -1.44,-3.18399 -1.44,-5.424"
         style=""
         id="path3050" />
      <path
         d="m 322.00585,173.04315 c -2e-5,-1.91998 -0.25602,-3.29598 -0.768,-4.128 -0.48002,-0.83198 -1.28001,-1.24798 -2.4,-1.248 -1.08801,2e-5 -2.22401,0.33602 -3.408,1.008 -1.15201,0.67202 -2.14401,1.58402 -2.976,2.736 l 0,16.992 c -0.48001,0.096 -1.07201,0.144 -1.776,0.144 -0.704,0 -1.296,-0.048 -1.776,-0.144 l 0,-23.376 0.288,-0.336 1.344,0 c 0.76799,3e-5 1.27999,0.20803 1.536,0.624 0.25599,0.38403 0.38399,1.00802 0.384,1.872 l 0,0.72 c 2.01599,-2.30397 4.35199,-3.45597 7.008,-3.456 2.65598,3e-5 4.46398,1.20003 5.424,3.6 2.62398,-2.39997 5.21598,-3.59997 7.776,-3.6 2.01597,3e-5 3.51997,0.68803 4.512,2.064 0.99197,1.34402 1.48797,3.12002 1.488,5.328 l 0,12 c -3e-5,1.82401 0.19197,3.184 0.576,4.08 -0.54403,0.512 -1.29603,0.768 -2.256,0.768 -1.21603,0 -1.82403,-0.784 -1.824,-2.352 l 0,-13.344 c -3e-5,-1.91998 -0.25603,-3.27998 -0.768,-4.08 -0.48003,-0.83198 -1.28003,-1.24798 -2.4,-1.248 -1.08803,2e-5 -2.20802,0.32002 -3.36,0.96 -1.15202,0.64002 -2.17602,1.53602 -3.072,2.688 l 0,17.088 c -0.48002,0.096 -1.07202,0.144 -1.776,0.144 -0.70402,0 -1.29602,-0.048 -1.776,-0.144 l 0,-15.36"
         style=""
         id="path3053" />
    </g>
  </g>
</svg>
